<svg width="289" height="155" viewBox="0 0 289 155" fill="none" xmlns="http://www.w3.org/2000/svg">
<path d="M38.9066 96.1539C18.875 96.1539 1 111.623 1 111.623V154.439H287V76.481C287 76.481 277.705 65.6074 263.006 62.0862C236.513 55.7394 232.815 102.074 209.542 102.074C192.447 102.074 191.266 73.1222 168.472 70.4832C145.678 67.8441 135.396 134.33 98.6506 133.58C71.1241 133.019 54.3867 96.1539 38.9066 96.1539Z" fill="url(#paint0_linear_2110_12813)"/>
<path d="M1.47656 111.425C1.47656 111.425 18.8749 96.0962 38.9065 96.0962C55.5782 96.0962 71.124 132.9 98.6505 133.46C135.396 134.209 145.678 67.8336 168.472 70.4682C191.266 73.1028 192.446 102.007 209.542 102.007C232.815 102.007 236.513 55.749 263.006 62.0852C277.705 65.6006 287 76.456 287 76.456" stroke="url(#paint1_linear_2110_12813)" stroke-width="2.5" stroke-linecap="round"/>
<g filter="url(#filter0_d_2110_12813)">
<path d="M98.6484 133.46C135.394 134.209 145.676 67.8336 168.47 70.4683C191.264 73.1029 192.444 102.007 209.54 102.007" stroke="url(#paint2_linear_2110_12813)" stroke-width="5" stroke-linecap="round"/>
</g>
<path opacity="0.3" d="M92.5234 23.8333C92.5234 10.6706 103.194 0 116.357 0H191.193C204.356 0 215.027 10.6705 215.027 23.8333V154.44H92.5234V23.8333Z" fill="url(#paint3_linear_2110_12813)"/>
<path d="M126.443 27.2012H128.123V41H125.76V30.0234L123.299 31.4004L122.283 29.4961L126.443 27.2012ZM138.875 40.3457C138.061 40.9447 137.133 41.2441 136.092 41.2441C135.05 41.2441 134.119 40.9447 133.299 40.3457C132.485 39.7402 131.85 38.8939 131.395 37.8066C130.939 36.7194 130.711 35.4824 130.711 34.0957C130.711 32.709 130.939 31.472 131.395 30.3848C131.85 29.2975 132.485 28.4544 133.299 27.8555C134.119 27.2565 135.05 26.957 136.092 26.957C137.133 26.957 138.061 27.2565 138.875 27.8555C139.695 28.4544 140.333 29.2975 140.789 30.3848C141.245 31.472 141.473 32.709 141.473 34.0957C141.473 35.4824 141.245 36.7194 140.789 37.8066C140.333 38.8939 139.695 39.7402 138.875 40.3457ZM133.973 37.5918C134.526 38.4902 135.232 38.9395 136.092 38.9395C136.951 38.9395 137.654 38.4902 138.201 37.5918C138.755 36.6868 139.031 35.5215 139.031 34.0957C139.031 32.6699 138.755 31.5078 138.201 30.6094C137.654 29.7109 136.951 29.2617 136.092 29.2617C135.232 29.2617 134.526 29.7109 133.973 30.6094C133.426 31.5078 133.152 32.6699 133.152 34.0957C133.152 35.5215 133.426 36.6868 133.973 37.5918ZM144.383 41.1562C143.934 41.1562 143.553 41.0065 143.24 40.707C142.934 40.4076 142.781 40.0332 142.781 39.584C142.781 39.1348 142.934 38.7572 143.24 38.4512C143.553 38.1387 143.934 37.9824 144.383 37.9824C144.839 37.9824 145.219 38.1387 145.525 38.4512C145.831 38.7572 145.984 39.1348 145.984 39.584C145.984 40.0332 145.831 40.4076 145.525 40.707C145.219 41.0065 144.839 41.1562 144.383 41.1562ZM151.58 26.957C153.162 26.957 154.428 27.4551 155.379 28.4512C156.329 29.4473 156.805 30.7917 156.805 32.4844C156.805 33.5586 156.603 34.5938 156.199 35.5898C155.802 36.5859 155.242 37.4779 154.52 38.2656C153.803 39.0534 152.905 39.7142 151.824 40.248C150.743 40.7754 149.562 41.1074 148.279 41.2441L147.82 39.0176C149.298 38.8158 150.551 38.347 151.58 37.6113C152.609 36.8691 153.341 35.987 153.777 34.9648C152.99 35.6419 151.997 35.9805 150.799 35.9805C149.555 35.9805 148.514 35.5573 147.674 34.7109C146.84 33.8646 146.424 32.8262 146.424 31.5957C146.424 30.2676 146.912 29.1641 147.889 28.2852C148.872 27.3997 150.102 26.957 151.58 26.957ZM148.865 31.5566C148.865 32.1882 149.116 32.722 149.617 33.1582C150.118 33.5879 150.747 33.8027 151.502 33.8027C152.257 33.8027 152.918 33.6139 153.484 33.2363C154.057 32.8587 154.344 32.3281 154.344 31.6445C154.344 30.9479 154.087 30.3783 153.572 29.9355C153.064 29.4863 152.4 29.2617 151.58 29.2617C150.799 29.2617 150.151 29.4798 149.637 29.916C149.122 30.3457 148.865 30.8926 148.865 31.5566ZM161.336 38.7637H167.078V41H157.996V39.0762L162.938 33.7637C163.38 33.2624 163.722 32.8099 163.963 32.4062C164.21 31.9961 164.334 31.5859 164.334 31.1758C164.334 30.6289 164.135 30.1862 163.738 29.8477C163.341 29.5091 162.833 29.3398 162.215 29.3398C161.115 29.3398 160.154 29.8997 159.334 31.0195L157.693 29.4766C158.169 28.7083 158.82 28.0964 159.646 27.6406C160.473 27.1849 161.375 26.957 162.352 26.957C163.654 26.957 164.718 27.3411 165.545 28.1094C166.378 28.8776 166.795 29.8542 166.795 31.0391C166.795 31.7943 166.635 32.4746 166.316 33.0801C165.997 33.679 165.564 34.2715 165.018 34.8574L161.336 38.7637ZM171.941 33.5391C170.978 33.5391 170.177 33.2266 169.539 32.6016C168.901 31.9701 168.582 31.1823 168.582 30.2383C168.582 29.3073 168.901 28.5293 169.539 27.9043C170.184 27.2728 170.984 26.957 171.941 26.957C172.892 26.957 173.686 27.2728 174.324 27.9043C174.962 28.5293 175.281 29.3073 175.281 30.2383C175.281 31.1823 174.962 31.9701 174.324 32.6016C173.686 33.2266 172.892 33.5391 171.941 33.5391ZM170.047 41L180.047 27.2012H182.439L172.439 41H170.047ZM171.941 31.7422C172.352 31.7422 172.697 31.599 172.977 31.3125C173.263 31.0195 173.406 30.6615 173.406 30.2383C173.406 29.8216 173.263 29.4766 172.977 29.2031C172.697 28.9232 172.352 28.7832 171.941 28.7832C171.518 28.7832 171.167 28.9232 170.887 29.2031C170.607 29.4766 170.467 29.8216 170.467 30.2383C170.467 30.6615 170.607 31.0195 170.887 31.3125C171.173 31.599 171.525 31.7422 171.941 31.7422ZM182.908 40.3066C182.27 40.9316 181.476 41.2441 180.525 41.2441C179.575 41.2441 178.781 40.9316 178.143 40.3066C177.505 39.6751 177.186 38.8874 177.186 37.9434C177.186 36.9993 177.501 36.2181 178.133 35.5996C178.771 34.9746 179.568 34.6621 180.525 34.6621C181.482 34.6621 182.277 34.9746 182.908 35.5996C183.546 36.2181 183.865 36.9993 183.865 37.9434C183.865 38.8874 183.546 39.6751 182.908 40.3066ZM180.525 39.418C180.949 39.418 181.3 39.278 181.58 38.998C181.86 38.7181 182 38.3665 182 37.9434C182 37.5202 181.857 37.1686 181.57 36.8887C181.29 36.6022 180.942 36.459 180.525 36.459C180.109 36.459 179.76 36.6022 179.48 36.8887C179.201 37.1686 179.061 37.5202 179.061 37.9434C179.061 38.3665 179.201 38.7181 179.48 38.998C179.76 39.278 180.109 39.418 180.525 39.418Z" fill="white"/>
<g filter="url(#filter1_d_2110_12813)">
<circle cx="98.2396" cy="132.513" r="5.95833" fill="url(#paint4_linear_2110_12813)"/>
<circle cx="98.2396" cy="132.513" r="5.24333" stroke="white" stroke-width="1.43"/>
</g>
<g filter="url(#filter2_d_2110_12813)">
<circle cx="209.068" cy="100.815" r="5.95833" fill="url(#paint5_linear_2110_12813)"/>
<circle cx="209.068" cy="100.815" r="5.24333" stroke="white" stroke-width="1.43"/>
</g>
<defs>
<filter id="filter0_d_2110_12813" x="91.1484" y="62.8906" width="125.891" height="78.076" filterUnits="userSpaceOnUse" color-interpolation-filters="sRGB">
<feFlood flood-opacity="0" result="BackgroundImageFix"/>
<feColorMatrix in="SourceAlpha" type="matrix" values="0 0 0 0 0 0 0 0 0 0 0 0 0 0 0 0 0 0 127 0" result="hardAlpha"/>
<feOffset/>
<feGaussianBlur stdDeviation="2.5"/>
<feComposite in2="hardAlpha" operator="out"/>
<feColorMatrix type="matrix" values="0 0 0 0 0.843137 0 0 0 0 0.996078 0 0 0 0 0.388235 0 0 0 1 0"/>
<feBlend mode="normal" in2="BackgroundImageFix" result="effect1_dropShadow_2110_12813"/>
<feBlend mode="normal" in="SourceGraphic" in2="effect1_dropShadow_2110_12813" result="shape"/>
</filter>
<filter id="filter1_d_2110_12813" x="86.3229" y="121.788" width="23.8346" height="23.8333" filterUnits="userSpaceOnUse" color-interpolation-filters="sRGB">
<feFlood flood-opacity="0" result="BackgroundImageFix"/>
<feColorMatrix in="SourceAlpha" type="matrix" values="0 0 0 0 0 0 0 0 0 0 0 0 0 0 0 0 0 0 127 0" result="hardAlpha"/>
<feOffset dy="1.19167"/>
<feGaussianBlur stdDeviation="2.97917"/>
<feColorMatrix type="matrix" values="0 0 0 0 0 0 0 0 0 0 0 0 0 0 0 0 0 0 0.1 0"/>
<feBlend mode="normal" in2="BackgroundImageFix" result="effect1_dropShadow_2110_12813"/>
<feBlend mode="normal" in="SourceGraphic" in2="effect1_dropShadow_2110_12813" result="shape"/>
</filter>
<filter id="filter2_d_2110_12813" x="197.151" y="90.09" width="23.8346" height="23.8333" filterUnits="userSpaceOnUse" color-interpolation-filters="sRGB">
<feFlood flood-opacity="0" result="BackgroundImageFix"/>
<feColorMatrix in="SourceAlpha" type="matrix" values="0 0 0 0 0 0 0 0 0 0 0 0 0 0 0 0 0 0 127 0" result="hardAlpha"/>
<feOffset dy="1.19167"/>
<feGaussianBlur stdDeviation="2.97917"/>
<feColorMatrix type="matrix" values="0 0 0 0 0 0 0 0 0 0 0 0 0 0 0 0 0 0 0.1 0"/>
<feBlend mode="normal" in2="BackgroundImageFix" result="effect1_dropShadow_2110_12813"/>
<feBlend mode="normal" in="SourceGraphic" in2="effect1_dropShadow_2110_12813" result="shape"/>
</filter>
<linearGradient id="paint0_linear_2110_12813" x1="144" y1="61.489" x2="144" y2="204.012" gradientUnits="userSpaceOnUse">
<stop stop-color="#D7FE63" stop-opacity="0.4"/>
<stop offset="1" stop-color="#D7FE63" stop-opacity="0"/>
</linearGradient>
<linearGradient id="paint1_linear_2110_12813" x1="144.238" y1="61.489" x2="144.238" y2="133.467" gradientUnits="userSpaceOnUse">
<stop stop-color="#EAFFAB"/>
<stop offset="1" stop-color="#D7FE63"/>
</linearGradient>
<linearGradient id="paint2_linear_2110_12813" x1="144.237" y1="61.4891" x2="144.237" y2="133.467" gradientUnits="userSpaceOnUse">
<stop stop-color="#EAFFAB"/>
<stop offset="1" stop-color="#D7FE63"/>
</linearGradient>
<linearGradient id="paint3_linear_2110_12813" x1="153.775" y1="0" x2="153.775" y2="204.013" gradientUnits="userSpaceOnUse">
<stop stop-color="#D7FE63" stop-opacity="0.15"/>
<stop offset="1" stop-color="#D7FE63"/>
</linearGradient>
<linearGradient id="paint4_linear_2110_12813" x1="98.2396" y1="126.555" x2="98.2396" y2="138.472" gradientUnits="userSpaceOnUse">
<stop stop-color="#EAFFAB"/>
<stop offset="1" stop-color="#D7FE63"/>
</linearGradient>
<linearGradient id="paint5_linear_2110_12813" x1="209.068" y1="94.8567" x2="209.068" y2="106.773" gradientUnits="userSpaceOnUse">
<stop stop-color="#EAFFAB"/>
<stop offset="1" stop-color="#D7FE63"/>
</linearGradient>
</defs>
</svg>
