<svg width="18" height="18" viewBox="0 0 18 18" fill="none" xmlns="http://www.w3.org/2000/svg">
<g id="Frame 343926">
<g id="Group">
<path id="Vector" d="M9 18C13.961 18 18 13.9829 18 9C18 4.01707 13.9829 0 9 0C4.01707 0 0 4.01707 0 9C0 13.9829 4.03902 18 9 18Z" fill="#7289DA"/>
<path id="Vector_2" d="M11.4355 12.5985C11.4355 12.5985 11.1282 12.2253 10.8648 11.896C12.0062 11.5887 12.4453 10.8863 12.4453 10.8863C12.0941 11.1278 11.7428 11.2814 11.4355 11.3912C10.9965 11.5668 10.5794 11.6985 10.1623 11.7643C9.3282 11.918 8.55991 11.8741 7.90137 11.7643C7.39649 11.6765 6.97942 11.5229 6.6282 11.3912C6.43064 11.3034 6.21113 11.2156 5.99162 11.1058C5.96966 11.0838 5.94771 11.0838 5.90381 11.0619C5.88186 11.0619 5.88186 11.0399 5.85991 11.0399C5.70625 10.9521 5.61845 10.8863 5.61845 10.8863C5.61845 10.8863 6.03552 11.5668 7.15503 11.896C6.89162 12.2253 6.56235 12.5985 6.56235 12.5985C4.63064 12.5326 3.90625 11.3034 3.90625 11.3034C3.90625 8.53751 5.15747 6.32043 5.15747 6.32043C6.40869 5.39848 7.61601 5.42044 7.61601 5.42044L7.70381 5.53019C6.12332 5.96922 5.39893 6.6497 5.39893 6.6497C5.39893 6.6497 5.5965 6.53995 5.90381 6.40824C6.84771 6.01312 7.57211 5.90336 7.87942 5.85946C7.92332 5.85946 7.96723 5.83751 8.03308 5.83751C8.55991 5.77165 9.17454 5.7497 9.78918 5.81555C10.6233 5.90336 11.5014 6.14483 12.4233 6.62775C12.4233 6.62775 11.7428 5.99117 10.2502 5.53019L10.3819 5.39848C10.3819 5.39848 11.5672 5.37653 12.8404 6.29848C12.8404 6.29848 14.0916 8.5375 14.0916 11.2814C14.0916 11.3034 13.3672 12.5326 11.4355 12.5985Z" fill="white"/>
<path id="Vector_3" d="M7.53133 8.10156C7.02645 8.10156 6.60938 8.58449 6.60938 9.15522C6.60938 9.72595 7.02645 10.2089 7.53133 10.2089C8.0362 10.2089 8.45328 9.72595 8.45328 9.15522C8.45328 8.58449 8.0362 8.10156 7.53133 8.10156ZM10.8021 8.10156C10.2972 8.10156 9.88011 8.58449 9.88011 9.15522C9.88011 9.72595 10.2972 10.2089 10.8021 10.2089C11.3069 10.2089 11.724 9.72595 11.724 9.15522C11.7021 8.58449 11.3069 8.10156 10.8021 8.10156Z" fill="#7289DA"/>
</g>
</g>
</svg>
