<svg width="209" height="200" viewBox="0 0 209 200" fill="none" xmlns="http://www.w3.org/2000/svg">
<mask id="path-1-inside-1_165_7739" fill="white">
<path d="M208.996 100C208.996 155.228 164.225 200 108.996 200C53.7676 200 8.99609 155.228 8.99609 100C8.99609 44.7715 53.7676 0 108.996 0C164.225 0 208.996 44.7715 208.996 100ZM31.2993 100C31.2993 142.911 66.0854 177.697 108.996 177.697C151.907 177.697 186.693 142.911 186.693 100C186.693 57.0893 151.907 22.3033 108.996 22.3033C66.0854 22.3033 31.2993 57.0893 31.2993 100Z"/>
</mask>
<path d="M208.996 100C208.996 155.228 164.225 200 108.996 200C53.7676 200 8.99609 155.228 8.99609 100C8.99609 44.7715 53.7676 0 108.996 0C164.225 0 208.996 44.7715 208.996 100ZM31.2993 100C31.2993 142.911 66.0854 177.697 108.996 177.697C151.907 177.697 186.693 142.911 186.693 100C186.693 57.0893 151.907 22.3033 108.996 22.3033C66.0854 22.3033 31.2993 57.0893 31.2993 100Z" fill="#F3EDF7" stroke="#F3EDF7" stroke-width="24.6154" stroke-linecap="round" mask="url(#path-1-inside-1_165_7739)"/>
<mask id="path-2-inside-2_165_7739" fill="white">
<path d="M198.07 99.9999C202.058 99.9999 205.32 103.238 205.021 107.216C203.733 124.358 197.874 140.892 187.993 155.066C178.113 169.241 164.628 180.459 148.99 187.598C145.361 189.255 141.195 187.315 139.814 183.573C138.434 179.83 140.367 175.706 143.973 174.002C156.848 167.917 167.953 158.557 176.144 146.806C184.335 135.056 189.274 121.398 190.529 107.213C190.88 103.24 194.081 99.9999 198.07 99.9999Z"/>
</mask>
<path d="M198.07 99.9999C202.058 99.9999 205.32 103.238 205.021 107.216C203.733 124.358 197.874 140.892 187.993 155.066C178.113 169.241 164.628 180.459 148.99 187.598C145.361 189.255 141.195 187.315 139.814 183.573C138.434 179.83 140.367 175.706 143.973 174.002C156.848 167.917 167.953 158.557 176.144 146.806C184.335 135.056 189.274 121.398 190.529 107.213C190.88 103.24 194.081 99.9999 198.07 99.9999Z" stroke="url(#paint0_linear_165_7739)" stroke-width="23.7037" stroke-linecap="round" mask="url(#path-2-inside-2_165_7739)"/>
<mask id="path-3-inside-3_165_7739" fill="white">
<path d="M133.746 185.566C134.854 189.398 132.649 193.431 128.746 194.249C110.13 198.15 90.7153 196.461 72.976 189.306C52.9974 181.248 36.2976 166.724 25.5471 148.055C14.7966 129.387 10.6162 107.653 13.6746 86.3289C16.3901 67.3949 24.6732 49.7549 37.3911 35.612C40.0581 32.6461 44.6529 32.7636 47.4107 35.6454C50.1684 38.5272 50.0403 43.0795 47.4128 46.0805C37.0093 57.9622 30.2293 72.6453 27.9727 88.3796C25.3731 106.505 28.9264 124.979 38.0643 140.847C47.2023 156.715 61.3971 169.061 78.379 175.91C93.1204 181.856 109.223 183.361 124.721 180.327C128.636 179.561 132.637 181.735 133.746 185.566Z"/>
</mask>
<path d="M133.746 185.566C134.854 189.398 132.649 193.431 128.746 194.249C110.13 198.15 90.7153 196.461 72.976 189.306C52.9974 181.248 36.2976 166.724 25.5471 148.055C14.7966 129.387 10.6162 107.653 13.6746 86.3289C16.3901 67.3949 24.6732 49.7549 37.3911 35.612C40.0581 32.6461 44.6529 32.7636 47.4107 35.6454C50.1684 38.5272 50.0403 43.0795 47.4128 46.0805C37.0093 57.9622 30.2293 72.6453 27.9727 88.3796C25.3731 106.505 28.9264 124.979 38.0643 140.847C47.2023 156.715 61.3971 169.061 78.379 175.91C93.1204 181.856 109.223 183.361 124.721 180.327C128.636 179.561 132.637 181.735 133.746 185.566Z" stroke="url(#paint1_linear_165_7739)" stroke-width="23.7037" stroke-linecap="round" mask="url(#path-3-inside-3_165_7739)"/>
<mask id="path-4-inside-4_165_7739" fill="white">
<path d="M52.0146 31.5355C49.463 28.4697 49.8655 23.8912 53.1139 21.5765C65.5423 12.7204 79.9287 6.92411 95.0981 4.71172C112.655 2.15106 130.579 4.491 146.89 11.4733C163.202 18.4556 177.267 29.8088 187.534 44.2799C196.404 56.7827 202.141 71.193 204.312 86.2987C204.88 90.2468 201.845 93.6985 197.865 93.9685C193.886 94.2386 190.473 91.223 189.853 87.2827C187.895 74.8331 183.083 62.9694 175.753 52.6379C167.026 40.3375 155.071 30.6873 141.206 24.7523C127.341 18.8173 112.106 16.8284 97.1827 19.0049C84.6478 20.8331 72.7418 25.5403 62.3825 32.7173C59.1037 34.9888 54.5662 34.6014 52.0146 31.5355Z"/>
</mask>
<path d="M52.0146 31.5355C49.463 28.4697 49.8655 23.8912 53.1139 21.5765C65.5423 12.7204 79.9287 6.92411 95.0981 4.71172C112.655 2.15106 130.579 4.491 146.89 11.4733C163.202 18.4556 177.267 29.8088 187.534 44.2799C196.404 56.7827 202.141 71.193 204.312 86.2987C204.88 90.2468 201.845 93.6985 197.865 93.9685C193.886 94.2386 190.473 91.223 189.853 87.2827C187.895 74.8331 183.083 62.9694 175.753 52.6379C167.026 40.3375 155.071 30.6873 141.206 24.7523C127.341 18.8173 112.106 16.8284 97.1827 19.0049C84.6478 20.8331 72.7418 25.5403 62.3825 32.7173C59.1037 34.9888 54.5662 34.6014 52.0146 31.5355Z" stroke="url(#paint2_linear_165_7739)" stroke-width="23.7037" stroke-linecap="round" mask="url(#path-4-inside-4_165_7739)"/>
<path d="M73.5618 90.5923V77.663H77.9304C78.9447 77.663 79.7739 77.8461 80.4178 78.2122C81.066 78.5742 81.5458 79.0645 81.8572 79.6832C82.1687 80.3019 82.3244 80.9921 82.3244 81.7539C82.3244 82.5157 82.1687 83.208 81.8572 83.8309C81.55 84.4538 81.0744 84.9505 80.4304 85.3208C79.7865 85.687 78.9616 85.8701 77.9557 85.8701H74.8244V84.4812H77.9052C78.5996 84.4812 79.1573 84.3612 79.5782 84.1213C79.999 83.8814 80.3042 83.5574 80.4936 83.1491C80.6872 82.7366 80.784 82.2716 80.784 81.7539C80.784 81.2362 80.6872 80.7733 80.4936 80.365C80.3042 79.9568 79.9969 79.6369 79.5719 79.4054C79.1468 79.1697 78.5828 79.0519 77.8799 79.0519H75.1274V90.5923H73.5618ZM88.1834 90.7943C87.308 90.7943 86.5399 90.586 85.8791 90.1693C85.2225 89.7526 84.7091 89.1697 84.3387 88.4206C83.9725 87.6714 83.7894 86.796 83.7894 85.7943C83.7894 84.7842 83.9725 83.9025 84.3387 83.1491C84.7091 82.3957 85.2225 81.8107 85.8791 81.3941C86.5399 80.9774 87.308 80.7691 88.1834 80.7691C89.0588 80.7691 89.8248 80.9774 90.4814 81.3941C91.1421 81.8107 91.6556 82.3957 92.0218 83.1491C92.3921 83.9025 92.5773 84.7842 92.5773 85.7943C92.5773 86.796 92.3921 87.6714 92.0218 88.4206C91.6556 89.1697 91.1421 89.7526 90.4814 90.1693C89.8248 90.586 89.0588 90.7943 88.1834 90.7943ZM88.1834 89.4559C88.8484 89.4559 89.3955 89.2855 89.8248 88.9446C90.2541 88.6036 90.5719 88.1554 90.7781 87.5999C90.9843 87.0443 91.0874 86.4425 91.0874 85.7943C91.0874 85.1462 90.9843 84.5422 90.7781 83.9824C90.5719 83.4227 90.2541 82.9702 89.8248 82.6251C89.3955 82.28 88.8484 82.1074 88.1834 82.1074C87.5184 82.1074 86.9713 82.28 86.542 82.6251C86.1127 82.9702 85.7949 83.4227 85.5887 83.9824C85.3825 84.5422 85.2793 85.1462 85.2793 85.7943C85.2793 86.4425 85.3825 87.0443 85.5887 87.5999C85.7949 88.1554 86.1127 88.6036 86.542 88.9446C86.9713 89.2855 87.5184 89.4559 88.1834 89.4559ZM101.424 83.067L100.086 83.4458C100.001 83.2228 99.8773 83.006 99.7132 82.7956C99.5532 82.5809 99.3344 82.4042 99.0566 82.2653C98.7788 82.1264 98.4232 82.0569 97.9897 82.0569C97.3962 82.0569 96.9017 82.1937 96.5061 82.4673C96.1147 82.7366 95.919 83.0797 95.919 83.4963C95.919 83.8667 96.0536 84.1592 96.323 84.3739C96.5924 84.5885 97.0132 84.7674 97.5856 84.9105L99.025 85.264C99.892 85.4744 100.538 85.7964 100.963 86.2299C101.388 86.6592 101.601 87.2127 101.601 87.8903C101.601 88.4458 101.441 88.9425 101.121 89.3802C100.805 89.8179 100.363 90.163 99.7952 90.4155C99.227 90.668 98.5663 90.7943 97.8129 90.7943C96.8238 90.7943 96.0052 90.5797 95.3571 90.1504C94.709 89.7211 94.2986 89.094 94.126 88.2691L95.5402 87.9155C95.6749 88.4374 95.9295 88.8288 96.3041 89.0898C96.6829 89.3507 97.1774 89.4812 97.7877 89.4812C98.4821 89.4812 99.0334 89.3339 99.4417 89.0393C99.8542 88.7404 100.06 88.3827 100.06 87.966C100.06 87.6293 99.9425 87.3473 99.7068 87.1201C99.4712 86.8886 99.1092 86.716 98.621 86.6024L97.0048 86.2236C96.1168 86.0132 95.4644 85.687 95.0478 85.2451C94.6353 84.7989 94.4291 84.2413 94.4291 83.5721C94.4291 83.0249 94.5827 82.5409 94.8899 82.1201C95.2014 81.6992 95.6244 81.3688 96.1589 81.1289C96.6976 80.889 97.3079 80.7691 97.9897 80.7691C98.9493 80.7691 99.7026 80.9795 100.25 81.4004C100.801 81.8212 101.193 82.3768 101.424 83.067ZM103.547 90.5923V80.8953H105.037V90.5923H103.547ZM104.305 79.2792C104.014 79.2792 103.764 79.1802 103.554 78.9824C103.347 78.7846 103.244 78.5468 103.244 78.2691C103.244 77.9913 103.347 77.7535 103.554 77.5557C103.764 77.3579 104.014 77.259 104.305 77.259C104.595 77.259 104.844 77.3579 105.05 77.5557C105.26 77.7535 105.365 77.9913 105.365 78.2691C105.365 78.5468 105.26 78.7846 105.05 78.9824C104.844 79.1802 104.595 79.2792 104.305 79.2792ZM111.687 80.8953V82.1579H106.662V80.8953H111.687ZM108.126 78.5721H109.616V87.8145C109.616 88.2354 109.677 88.551 109.799 88.7615C109.925 88.9677 110.085 89.1066 110.279 89.1781C110.477 89.2455 110.685 89.2792 110.904 89.2792C111.068 89.2792 111.203 89.2707 111.308 89.2539C111.413 89.2329 111.497 89.216 111.561 89.2034L111.864 90.5418C111.763 90.5797 111.622 90.6175 111.441 90.6554C111.26 90.6975 111.03 90.7185 110.753 90.7185C110.332 90.7185 109.919 90.6281 109.515 90.4471C109.115 90.2661 108.783 89.9904 108.518 89.6201C108.257 89.2497 108.126 88.7825 108.126 88.2185V78.5721ZM113.632 90.5923V80.8953H115.122V90.5923H113.632ZM114.389 79.2792C114.099 79.2792 113.848 79.1802 113.638 78.9824C113.432 78.7846 113.329 78.5468 113.329 78.2691C113.329 77.9913 113.432 77.7535 113.638 77.5557C113.848 77.3579 114.099 77.259 114.389 77.259C114.68 77.259 114.928 77.3579 115.134 77.5557C115.345 77.7535 115.45 77.9913 115.45 78.2691C115.45 78.5468 115.345 78.7846 115.134 78.9824C114.928 79.1802 114.68 79.2792 114.389 79.2792ZM121.494 90.7943C120.618 90.7943 119.85 90.586 119.189 90.1693C118.533 89.7526 118.019 89.1697 117.649 88.4206C117.283 87.6714 117.1 86.796 117.1 85.7943C117.1 84.7842 117.283 83.9025 117.649 83.1491C118.019 82.3957 118.533 81.8107 119.189 81.3941C119.85 80.9774 120.618 80.7691 121.494 80.7691C122.369 80.7691 123.135 80.9774 123.792 81.3941C124.452 81.8107 124.966 82.3957 125.332 83.1491C125.702 83.9025 125.888 84.7842 125.888 85.7943C125.888 86.796 125.702 87.6714 125.332 88.4206C124.966 89.1697 124.452 89.7526 123.792 90.1693C123.135 90.586 122.369 90.7943 121.494 90.7943ZM121.494 89.4559C122.159 89.4559 122.706 89.2855 123.135 88.9446C123.564 88.6036 123.882 88.1554 124.088 87.5999C124.294 87.0443 124.398 86.4425 124.398 85.7943C124.398 85.1462 124.294 84.5422 124.088 83.9824C123.882 83.4227 123.564 82.9702 123.135 82.6251C122.706 82.28 122.159 82.1074 121.494 82.1074C120.829 82.1074 120.281 82.28 119.852 82.6251C119.423 82.9702 119.105 83.4227 118.899 83.9824C118.693 84.5422 118.59 85.1462 118.59 85.7943C118.59 86.4425 118.693 87.0443 118.899 87.5999C119.105 88.1554 119.423 88.6036 119.852 88.9446C120.281 89.2855 120.829 89.4559 121.494 89.4559ZM129.355 84.759V90.5923H127.866V80.8953H129.305V82.4105H129.431C129.658 81.918 130.004 81.5224 130.467 81.2236C130.929 80.9206 131.527 80.7691 132.259 80.7691C132.916 80.7691 133.491 80.9037 133.983 81.1731C134.475 81.4382 134.858 81.8423 135.132 82.3852C135.405 82.9239 135.542 83.6058 135.542 84.4307V90.5923H134.052V84.5317C134.052 83.7699 133.855 83.1765 133.459 82.7514C133.063 82.3221 132.52 82.1074 131.83 82.1074C131.355 82.1074 130.929 82.2106 130.555 82.4168C130.185 82.623 129.892 82.9239 129.677 83.3196C129.463 83.7152 129.355 84.195 129.355 84.759ZM144.837 83.067L143.499 83.4458C143.415 83.2228 143.29 83.006 143.126 82.7956C142.966 82.5809 142.748 82.4042 142.47 82.2653C142.192 82.1264 141.836 82.0569 141.403 82.0569C140.809 82.0569 140.315 82.1937 139.919 82.4673C139.528 82.7366 139.332 83.0797 139.332 83.4963C139.332 83.8667 139.467 84.1592 139.736 84.3739C140.006 84.5885 140.426 84.7674 140.999 84.9105L142.438 85.264C143.305 85.4744 143.951 85.7964 144.376 86.2299C144.801 86.6592 145.014 87.2127 145.014 87.8903C145.014 88.4458 144.854 88.9425 144.534 89.3802C144.219 89.8179 143.777 90.163 143.208 90.4155C142.64 90.668 141.979 90.7943 141.226 90.7943C140.237 90.7943 139.418 90.5797 138.77 90.1504C138.122 89.7211 137.712 89.094 137.539 88.2691L138.953 87.9155C139.088 88.4374 139.343 88.8288 139.717 89.0898C140.096 89.3507 140.591 89.4812 141.201 89.4812C141.895 89.4812 142.447 89.3339 142.855 89.0393C143.267 88.7404 143.474 88.3827 143.474 87.966C143.474 87.6293 143.356 87.3473 143.12 87.1201C142.884 86.8886 142.522 86.716 142.034 86.6024L140.418 86.2236C139.53 86.0132 138.878 85.687 138.461 85.2451C138.048 84.7989 137.842 84.2413 137.842 83.5721C137.842 83.0249 137.996 82.5409 138.303 82.1201C138.615 81.6992 139.038 81.3688 139.572 81.1289C140.111 80.889 140.721 80.7691 141.403 80.7691C142.362 80.7691 143.116 80.9795 143.663 81.4004C144.214 81.8212 144.606 82.3768 144.837 83.067Z" fill="#333333"/>
<path d="M108.68 123.763C107.316 123.763 106.104 123.529 105.043 123.062C103.989 122.595 103.156 121.945 102.543 121.111C101.931 120.278 101.606 119.315 101.568 118.223H105.129C105.16 118.747 105.334 119.205 105.65 119.596C105.965 119.981 106.385 120.281 106.909 120.496C107.433 120.71 108.02 120.818 108.67 120.818C109.365 120.818 109.98 120.698 110.517 120.458C111.054 120.212 111.473 119.871 111.776 119.435C112.079 118.999 112.228 118.498 112.221 117.929C112.228 117.342 112.076 116.825 111.767 116.376C111.458 115.928 111.009 115.578 110.422 115.325C109.841 115.073 109.141 114.946 108.32 114.946H106.606V112.238H108.32C108.995 112.238 109.586 112.121 110.091 111.888C110.602 111.654 111.003 111.326 111.293 110.903C111.584 110.474 111.726 109.978 111.72 109.416C111.726 108.867 111.603 108.39 111.35 107.986C111.104 107.576 110.754 107.257 110.299 107.03C109.851 106.802 109.324 106.689 108.718 106.689C108.124 106.689 107.575 106.796 107.07 107.011C106.565 107.225 106.158 107.532 105.848 107.929C105.539 108.321 105.375 108.788 105.356 109.331H101.975C102.001 108.245 102.313 107.292 102.913 106.471C103.519 105.644 104.327 105 105.337 104.539C106.347 104.072 107.48 103.838 108.737 103.838C110.031 103.838 111.155 104.082 112.108 104.568C113.067 105.047 113.809 105.695 114.333 106.509C114.857 107.323 115.119 108.223 115.119 109.208C115.126 110.3 114.804 111.215 114.153 111.954C113.509 112.693 112.663 113.176 111.615 113.403V113.554C112.979 113.744 114.024 114.249 114.75 115.07C115.482 115.884 115.845 116.897 115.839 118.109C115.839 119.195 115.53 120.167 114.911 121.026C114.298 121.878 113.453 122.547 112.373 123.034C111.3 123.52 110.069 123.763 108.68 123.763Z" fill="#333333"/>
<defs>
<linearGradient id="paint0_linear_165_7739" x1="144.551" y1="181.481" x2="240.477" y2="63.7036" gradientUnits="userSpaceOnUse">
<stop stop-color="#A4C1FF"/>
<stop offset="1" stop-color="#0066DA"/>
</linearGradient>
<linearGradient id="paint1_linear_165_7739" x1="45.6622" y1="36.2962" x2="205.292" y2="196.296" gradientUnits="userSpaceOnUse">
<stop stop-color="#9B7EBD"/>
<stop offset="1" stop-color="#3B1E54"/>
</linearGradient>
<linearGradient id="paint2_linear_165_7739" x1="198.255" y1="88.5184" x2="8.37739" y2="77.3803" gradientUnits="userSpaceOnUse">
<stop stop-color="#859F3D"/>
<stop offset="1" stop-color="#31511E"/>
</linearGradient>
</defs>
</svg>
