<svg width="32" height="32" viewBox="0 0 32 32" fill="none" xmlns="http://www.w3.org/2000/svg">
<g id="Frame 343824">
<path id="Vector" d="M18.6008 17.4012L18.6008 5.40117L22.2008 9.00117M17.8008 21.4012C17.8008 21.843 18.159 22.2012 18.6008 22.2012C19.0426 22.2012 19.4008 21.843 19.4008 21.4012C19.4008 20.9593 19.0426 20.6012 18.6008 20.6012C18.159 20.6012 17.8008 20.9593 17.8008 21.4012Z" stroke="#859F3D" stroke-width="1.6" stroke-linecap="round" stroke-linejoin="round"/>
<path id="Vector_2" d="M13.3992 14.2004L13.3992 26.2004L9.79922 22.6004M14.1992 10.2004C14.1992 9.75856 13.841 9.40039 13.3992 9.40039C12.9574 9.40039 12.5992 9.75856 12.5992 10.2004C12.5992 10.6422 12.9574 11.0004 13.3992 11.0004C13.841 11.0004 14.1992 10.6422 14.1992 10.2004Z" stroke="#859F3D" stroke-width="1.6" stroke-linecap="round" stroke-linejoin="round"/>
</g>
</svg>
