<svg width="18" height="18" viewBox="0 0 18 18" fill="none" xmlns="http://www.w3.org/2000/svg">
<g id="Frame 343925">
<path id="Vector" d="M9 18C13.961 18 18 13.9829 18 9C18 4.01707 13.9829 0 9 0C4.01707 0 0 4.01707 0 9C0 13.9829 4.03902 18 9 18Z" fill="url(#paint0_linear_1672_12617)"/>
<path id="Vector_2" d="M6.10156 9.65766L7.17718 12.6211C7.17718 12.6211 7.28694 12.8845 7.44059 12.8845C7.59425 12.8845 9.72351 10.6674 9.72351 10.6674L12.0942 6.10156L6.16741 8.88937L6.10156 9.65766Z" fill="#C8DAEA"/>
<path id="Vector_3" d="M7.50465 10.4297L7.28514 12.6248C7.28514 12.6248 7.19733 13.2833 7.85587 12.6248C8.51441 11.9663 9.17294 11.4614 9.17294 11.4614" fill="#A9C6D8"/>
<path id="Vector_4" d="M6.12304 9.74846L3.92791 9.02407C3.92791 9.02407 3.66449 8.91431 3.75229 8.67285C3.77424 8.607 3.81815 8.58505 3.90595 8.49724C4.38888 8.16797 12.906 5.11675 12.906 5.11675C12.906 5.11675 13.1474 5.02895 13.3011 5.0948C13.3669 5.11676 13.4108 5.16066 13.4547 5.24846C13.4547 5.27041 13.4767 5.35822 13.4767 5.42407C13.4767 5.48993 13.4767 5.53383 13.4767 5.59968C13.4108 6.43383 11.8962 12.668 11.8962 12.668C11.8962 12.668 11.8084 13.0192 11.4791 13.0631C11.3694 13.0631 11.2157 13.0411 11.0401 12.8875C10.3816 12.3168 8.14255 10.8241 7.61572 10.4948C7.59377 10.4729 7.59376 10.4728 7.59376 10.4289C7.59376 10.407 7.61572 10.3411 7.61572 10.3411C7.61572 10.3411 11.545 6.82895 11.6547 6.47773C11.6547 6.45578 11.6328 6.45578 11.5889 6.45578C11.3255 6.54358 6.80352 9.39724 6.32059 9.72651C6.18888 9.79237 6.12304 9.74846 6.12304 9.74846Z" fill="white"/>
</g>
<defs>
<linearGradient id="paint0_linear_1672_12617" x1="9.00922" y1="17.9978" x2="9.00922" y2="0.017077" gradientUnits="userSpaceOnUse">
<stop stop-color="#1D93D2"/>
<stop offset="1" stop-color="#38B0E3"/>
</linearGradient>
</defs>
</svg>
