<svg width="22" height="22" viewBox="0 0 22 22" fill="none" xmlns="http://www.w3.org/2000/svg">
<g id="vase">
<path id="Union" fill-rule="evenodd" clip-rule="evenodd" d="M13.7338 3.08709C13.7081 3.07933 13.6824 3.0694 13.6567 3.05947C13.6023 3.03844 13.548 3.01745 13.4935 3.01714C12.7043 3.01266 11.9149 3.01285 11.1256 3.01303L10.6532 3.01311C10.6533 3.01314 10.6534 3.01318 10.6535 3.01322C9.80632 3.01322 8.95932 3.01411 8.11246 3.01591C8.02461 3.0225 7.93738 3.03569 7.8515 3.05536C7.83324 3.04892 7.81499 3.04232 7.79672 3.03571C7.75397 3.02024 7.71115 3.00475 7.66811 2.99125C7.52945 2.95025 7.41075 2.85958 7.33473 2.73657C7.25871 2.61357 7.2307 2.46686 7.25605 2.32449C7.27636 2.18758 7.34543 2.0626 7.45055 1.97255C7.55567 1.88251 7.68977 1.83345 7.82819 1.83441C8.4675 1.83257 9.10848 1.83386 9.74999 1.83516C10.0492 1.83576 10.3485 1.83636 10.6478 1.83665C10.6479 1.83661 10.648 1.83658 10.648 1.83654C11.05 1.83654 11.452 1.83578 11.854 1.83502H11.854C12.4753 1.83384 13.0966 1.83267 13.7181 1.8343C14.0464 1.8343 14.2822 2.03114 14.3333 2.32349C14.3844 2.61584 14.2199 2.87635 13.9024 2.99607C13.8442 3.02243 13.7878 3.05284 13.7338 3.08709ZM10.0432 6.55937L10.0452 6.5592C9.76269 6.94867 9.53654 7.37609 9.37349 7.8288C9.12807 8.54892 8.95739 9.29237 8.86412 10.0474C8.85587 10.1015 8.84876 10.1557 8.84209 10.21C8.84832 10.1566 8.85478 10.1033 8.86188 10.0501C8.95493 9.294 9.12562 8.54948 9.37125 7.82835C9.53421 7.37588 9.76021 6.94867 10.0426 6.55937H10.0432ZM8.71792 6.55798C8.69396 6.46202 8.67032 6.36595 8.64669 6.26987L8.64668 6.26983C8.58637 6.02476 8.52606 5.77965 8.46044 5.53615C8.44475 5.47741 8.39229 5.39401 8.34476 5.38505C8.17123 5.35231 8.09905 5.23618 8.03851 5.09225C7.61793 4.09145 6.22882 3.8843 5.53562 4.72188C5.07782 5.27474 5.09306 5.8841 5.36703 6.50422C5.45252 6.69664 5.55334 6.88367 5.65421 7.07078L5.65422 7.07079L5.65422 7.0708C5.71788 7.18889 5.78156 7.30701 5.84142 7.42655C6.03519 7.81276 6.11731 8.21192 5.95892 8.63473C6.0014 8.62025 6.04103 8.5985 6.07606 8.57043C6.14099 8.49514 6.20357 8.41762 6.26612 8.34012L6.26613 8.34011L6.26614 8.3401C6.37159 8.20945 6.47698 8.07889 6.59349 7.95928C7.19145 7.34342 7.91641 6.86524 8.71792 6.55798ZM5.63856 9.16486C5.50427 9.24207 5.37358 9.24144 5.2639 9.12773C5.14597 9.00577 5.15628 8.86318 5.25134 8.73629C5.52755 8.36637 5.48899 7.99914 5.27645 7.61532L5.22502 7.52253C5.06559 7.23524 4.90501 6.94586 4.78681 6.64187C4.44694 5.77604 4.50119 4.95325 5.16929 4.24883C5.89074 3.48658 7.08345 3.3969 7.92776 4.02464L8.11115 4.15916L8.05037 3.90229C7.98052 3.60713 7.91549 3.3323 7.85019 3.05747C7.93607 3.03779 8.0233 3.0246 8.11115 3.01801C8.958 3.01472 9.80501 3.01383 10.6522 3.01532C11.5992 3.01532 12.5466 3.01532 13.4936 3.01936C13.5492 3.01936 13.6047 3.04092 13.6602 3.06251C13.6847 3.07205 13.7093 3.08161 13.7339 3.08931C13.6855 3.26866 13.6372 3.44802 13.5891 3.62737H13.5882L13.4806 4.16095C13.4594 4.23907 13.4378 4.3172 13.4163 4.39532L13.4163 4.39543C13.3636 4.5863 13.3109 4.77717 13.2632 4.96804C13.2413 5.05682 13.2285 5.14765 13.2156 5.23859L13.2156 5.23865L13.2156 5.2387L13.2156 5.23875L13.2156 5.2388C13.2095 5.28192 13.2034 5.32505 13.1964 5.368C13.1679 5.41858 13.1439 5.47154 13.1246 5.52628C13.0627 5.76296 13.0049 6.00007 12.947 6.23745L12.947 6.23746L12.947 6.23747L12.947 6.23748L12.947 6.23749C12.921 6.34413 12.895 6.45083 12.8686 6.55757L12.0984 6.55733L12.8714 6.55807C12.8885 6.5662 12.9055 6.5746 12.9225 6.583L12.9225 6.583L12.9225 6.583L12.9225 6.58301L12.9225 6.58301L12.9225 6.58301L12.9225 6.58301L12.9225 6.58301L12.9225 6.58301L12.9225 6.58301L12.9225 6.58302L12.9226 6.58302L12.9226 6.58302L12.9226 6.58302C12.959 6.60102 12.9955 6.61901 13.0328 6.6343C13.9565 7.01139 14.7178 7.60461 15.3514 8.36866C15.421 8.45265 15.4927 8.53506 15.5643 8.61746C15.5983 8.6565 15.6322 8.69553 15.6659 8.73473C15.4744 8.28932 15.5364 7.85496 15.7472 7.43213C15.779 7.36866 15.8135 7.3065 15.848 7.24435C15.8946 7.16029 15.9413 7.07626 15.9812 6.98912C16.013 6.91939 16.046 6.8499 16.0791 6.78034C16.1819 6.56407 16.285 6.34712 16.3511 6.12015C16.6794 4.9938 15.6951 3.97417 14.5576 4.25083C14.0832 4.36606 13.729 4.6342 13.5487 5.10276C13.485 5.26328 13.3981 5.39242 13.1963 5.3709C13.2028 5.33043 13.2085 5.28997 13.2142 5.2496L13.2142 5.24953C13.2274 5.15573 13.2405 5.06246 13.2631 4.97094C13.3108 4.78006 13.3635 4.58919 13.4162 4.39832L13.4162 4.39821C13.4378 4.32009 13.4593 4.24196 13.4806 4.16384C14.0357 3.69797 14.6724 3.51009 15.3822 3.66254C16.6063 3.92619 17.2865 5.16554 16.8847 6.4116C16.8073 6.65248 16.6909 6.88097 16.5746 7.10935L16.5746 7.10937C16.5252 7.2062 16.4759 7.30301 16.4296 7.40074C16.3993 7.46452 16.3671 7.52743 16.3349 7.59035C16.2937 7.67076 16.2525 7.75118 16.2153 7.83344C16.0861 8.11771 16.1175 8.39033 16.287 8.64995C16.2985 8.6674 16.3096 8.685 16.3207 8.70241L16.3444 8.73962C16.4296 8.87414 16.4435 9.01449 16.3215 9.13152C16.1996 9.24854 16.0525 9.24182 15.918 9.136L15.8166 8.97566C15.8499 9.02898 15.8835 9.08223 15.9172 9.1354C15.9428 9.19362 15.9688 9.25167 15.9947 9.30972L15.9947 9.30974C16.0525 9.439 16.1103 9.56827 16.1639 9.69947C16.2322 9.8677 16.2971 10.0374 16.362 10.2072L16.362 10.2072L16.362 10.2073L16.362 10.2074C16.3903 10.2815 16.4187 10.3555 16.4472 10.4294C15.9948 10.4693 15.6442 10.7115 15.3236 11.0043C14.9048 11.3872 14.5788 11.385 14.1484 11.0079C13.9618 10.8446 13.7627 10.6747 13.539 10.5792C13.0876 10.3865 12.6615 10.3549 12.2623 10.4707C12.6616 10.3551 13.0879 10.3873 13.5389 10.5807C13.7631 10.6762 13.9618 10.8462 14.1483 11.0094C14.5787 11.3865 14.9047 11.3887 15.3235 11.0058C15.6441 10.713 15.9961 10.4709 16.4472 10.431C16.5206 10.8232 16.5942 11.2154 16.6679 11.6074L16.6683 11.6074C16.6665 11.7498 16.6689 11.8929 16.6713 12.0359L16.6713 12.0359V12.036C16.6767 12.3515 16.682 12.667 16.6419 12.9767C16.4625 14.3667 15.9653 15.6671 15.3806 16.9302C15.2068 17.3054 15.0179 17.6748 14.829 18.044L14.8289 18.0441C14.6892 18.3171 14.5495 18.5901 14.4161 18.8654C14.3843 18.9436 14.3833 19.0309 14.4134 19.1098C14.4621 19.2308 14.5224 19.3475 14.5827 19.4642L14.5827 19.4643L14.5828 19.4644L14.5828 19.4645L14.5829 19.4646L14.5829 19.4647L14.583 19.4648L14.583 19.4649L14.5831 19.465L14.5831 19.4651C14.6131 19.5231 14.6431 19.5812 14.6717 19.6398C14.7918 19.8868 14.7694 19.9877 14.5578 20.1657H9.50624C9.46058 20.0854 9.42947 20.0065 9.4119 19.9309C9.42936 20.0068 9.46035 20.0861 9.50589 20.1668H7.03483C6.80301 19.9816 6.78328 19.8978 6.91376 19.6319C6.93219 19.5942 6.95034 19.5563 6.96851 19.5183C7.02508 19.4001 7.08176 19.2817 7.14692 19.1687C7.22091 19.0405 7.2106 18.932 7.14692 18.801C7.05781 18.6235 6.96786 18.4464 6.87789 18.2692C6.57901 17.6805 6.27999 17.0916 6.01116 16.4892C5.5148 15.3758 5.10677 14.2266 4.94669 13.011C4.90395 12.6863 4.90908 12.3553 4.9142 12.0241C4.91655 11.8724 4.9189 11.7206 4.91665 11.5695C4.99405 11.5899 5.0663 11.6183 5.1347 11.6529C5.06569 11.6179 4.99276 11.5891 4.91458 11.5684C4.99021 11.1891 5.06614 10.8097 5.14237 10.4304L5.14301 10.4305C5.20717 10.2725 5.2716 10.1154 5.33594 9.95843L5.33596 9.95837L5.336 9.95828L5.33604 9.95817L5.33607 9.95809L5.33609 9.95805L5.3361 9.95803L5.33611 9.95801L5.33612 9.95799C5.41768 9.75903 5.4991 9.5604 5.57969 9.36094C5.59683 9.31734 5.60893 9.27254 5.62099 9.22787L5.62099 9.22786C5.62668 9.20678 5.63236 9.18573 5.63856 9.16486ZM6.8581 12.4791C6.55855 12.4798 6.26583 12.409 6.00296 12.2758C6.2653 12.4083 6.55726 12.4787 6.85604 12.4781C7.33172 12.4771 7.78941 12.2961 8.13714 11.9715L8.17418 11.9364C8.33608 11.7824 8.50563 11.6212 8.75249 11.6003L8.75241 11.6015C8.50672 11.6232 8.33768 11.7839 8.17625 11.9374L8.1392 11.9726C7.79147 12.2972 7.33379 12.4781 6.8581 12.4791ZM8.82683 10.4251L8.81079 10.6787L8.82676 10.425C8.82357 10.418 8.82122 10.4107 8.81977 10.4031L8.81977 10.4031C8.82159 10.4101 8.82398 10.417 8.82691 10.4236C9.3856 10.3752 9.81022 10.6509 10.2026 10.9975C10.6532 11.3962 10.9518 11.3971 11.4002 10.9828C11.5832 10.8132 11.7735 10.6795 11.9709 10.5834C11.7733 10.6797 11.5829 10.8139 11.4001 10.9843C10.954 11.3986 10.6531 11.3977 10.2025 10.9991C9.81015 10.6525 9.38552 10.3767 8.82683 10.4251ZM10.0755 6.55562L10.0754 6.55563C10.05 6.34482 10.0242 6.13402 9.99834 5.9233C9.94048 5.45088 9.88268 4.97891 9.82937 4.50845C9.82611 4.47984 9.82475 4.45127 9.82519 4.42285C9.82495 4.4498 9.82634 4.47687 9.82942 4.50396C9.88369 4.98604 9.94262 5.46744 10.0015 5.94865C10.0263 6.151 10.0511 6.35331 10.0755 6.55562ZM8.75382 11.6158L8.75406 11.6158C8.66787 12.4141 8.73152 13.2111 8.82963 14.0004C8.97551 15.1759 9.14524 16.3483 9.315 17.521L9.31501 17.5211C9.35344 17.7865 9.39186 18.052 9.43002 18.3175C9.47441 18.6251 9.57395 18.6959 9.88782 18.6959H13.3776C13.6009 18.6964 13.7117 18.7757 13.73 18.9416C13.7363 19 13.7299 19.053 13.7122 19.0985C13.7296 19.0533 13.7359 19.0007 13.7297 18.9427C13.7113 18.7768 13.6014 18.697 13.3773 18.697H9.88746C9.5718 18.6966 9.4745 18.6262 9.42966 18.3186C9.39253 18.0602 9.35516 17.8019 9.31778 17.5435L9.31776 17.5434L9.31774 17.5432L9.31772 17.5431L9.31769 17.5429L9.31767 17.5428L9.31765 17.5426L9.31762 17.5425L9.3176 17.5423L9.31758 17.5421L9.31757 17.5421L9.31756 17.5421C9.14694 16.3627 8.97635 15.1836 8.82927 14.0015C8.73112 13.2118 8.66746 12.4145 8.75382 11.6158Z" fill="url(#paint0_linear_94_3317)"/>
</g>
<defs>
<linearGradient id="paint0_linear_94_3317" x1="17.0003" y1="2.19491" x2="3.54826" y2="3.02356" gradientUnits="userSpaceOnUse">
<stop stop-color="#A899F4"/>
<stop offset="1" stop-color="#DAD1FF"/>
</linearGradient>
</defs>
</svg>
